<?xml version="1.0" encoding="utf-8"?>
<!-- Generator: Adobe Illustrator 22.1.0, SVG Export Plug-In . SVG Version: 6.00 Build 0)  -->
<svg version="1.1" xmlns="http://www.w3.org/2000/svg" xmlns:xlink="http://www.w3.org/1999/xlink" x="0px" y="0px"
	 viewBox="0 0 52 52" style="enable-background:new 0 0 52 52;" xml:space="preserve">
<style type="text/css">
	.st0{fill:#FFFFFF;}
	.st1{display:none;}
	.st2{display:inline;}
</style>
<g id="Capa_1">
	<path class="st0" d="M26,0C11.7,0,0,11.7,0,26s11.7,26,26,26s26-11.7,26-26S40.3,0,26,0z M38.5,28H28v11c0,1.1-0.9,2-2,2
		s-2-0.9-2-2V28H13.5c-1.1,0-2-0.9-2-2s0.9-2,2-2H24V14c0-1.1,0.9-2,2-2s2,0.9,2,2v10h10.5c1.1,0,2,0.9,2,2S39.6,28,38.5,28z"/>
</g>
<g id="Calque_2" class="st1">
	
		<image style="display:inline;overflow:visible;" width="283" height="470" xlink:href="1.jpg"  transform="matrix(0.1287 0 0 0.1287 7.9722 -3.9124)">
	</image>
</g>
<g id="Calque_3" class="st1">
	<path class="st2" d="M16.1,5.5c0,0,0,32,0,42.5c0,0.1-0.1,0.3,0,0.4c1.6,1,2.4,2.7,2.4,2.7c5.7,0.8,14.7,0,14.7,0
		c0-1.1,1.8-2.1,2.2-2.9c0-0.1,0-0.4,0-0.4L35.1,5.4c0,0-1.5-1.9-1.7-3.3l0-0.7c0,0,0.6-0.8-0.5-0.9c-1.2,0-14.1,0.1-14.1,0.1
		s-0.9,0-0.5,0.8l0,0.9C18.3,2.3,17.1,5,16.1,5.5z"/>
</g>
</svg>
